<svg width="51" height="51" viewBox="0 0 51 51" fill="none" xmlns="http://www.w3.org/2000/svg">
<path d="M25.5 50.5C39.3071 50.5 50.5 39.3071 50.5 25.5C50.5 11.6929 39.3071 0.5 25.5 0.5C11.6929 0.5 0.5 11.6929 0.5 25.5C0.5 39.3071 11.6929 50.5 25.5 50.5Z" fill="#F0F0F0"/>
<path d="M48.945 34.1956C49.95 31.4873 50.5 28.558 50.5 25.5C50.5 22.442 49.95 19.5127 48.945 16.8044H2.05498C1.0501 19.5127 0.5 22.442 0.5 25.5C0.5 28.558 1.0501 31.4873 2.05498 34.1956L25.5 36.3695L48.945 34.1956Z" fill="#0052B4"/>
<path d="M25.5002 50.5C36.2493 50.5 45.4129 43.7156 48.9452 34.1956H2.05518C5.5875 43.7156 14.7511 50.5 25.5002 50.5Z" fill="#D80027"/>
</svg>
